<svg xmlns="http://www.w3.org/2000/svg" viewBox="0 0 198.29 87.19"><defs><style>.cls-1,.cls-2{fill:#d81e06;}.cls-2{isolation:isolate;font-size:79px;font-family:LiSu, LiSu;}</style></defs><title>秘密-红</title><g id="图层_2" data-name="图层 2"><g id="图层_1-2" data-name="图层 1"><g id="图层_2-2" data-name="图层 2"><g id="图层_1-2-2" data-name="图层 1-2"><path class="cls-1" d="M198.29,72.88l-.1-57a9,9,0,0,0-9-9h0L9,7.06a9,9,0,0,0-9,9L.1,73a9,9,0,0,0,9,9h0l180.15-.1a9,9,0,0,0,9-9S198.29,72.9,198.29,72.88Zm-9,2.87-180.2.09A2.86,2.86,0,0,1,6.19,73v-.1L6.16,16A2.87,2.87,0,0,1,9,13.13H9l180.15-.08a2.86,2.86,0,0,1,2.9,2.82h0V16l.11,57a2.91,2.91,0,0,1-2.91,2.9Z"/><text class="cls-2" transform="matrix(1, -0.01, 0.01, 1, 18.9, 69.29)">秘密</text></g></g></g></g></svg>